<?xml version="1.0" encoding="UTF-8" standalone="no"?>
<!DOCTYPE svg PUBLIC "-//W3C//DTD SVG 1.1//EN" "http://www.w3.org/Graphics/SVG/1.1/DTD/svg11.dtd">
<svg width="100%" height="100%" viewBox="0 0 896 1108" version="1.1" xmlns="http://www.w3.org/2000/svg" xmlns:xlink="http://www.w3.org/1999/xlink" xml:space="preserve" xmlns:serif="http://www.serif.com/" style="fill-rule:evenodd;clip-rule:evenodd;stroke-linecap:round;stroke-miterlimit:10;">
    <g transform="matrix(4.2,0,0,4.2,0,0)">
        <path d="M47.139,70.771C47.139,70.771 77.362,-1.427 95.124,2.127C112.886,5.681 104.66,69.625 104.66,69.625" style="fill:none;fill-rule:nonzero;stroke:rgb(180,180,180);stroke-width:4px;"/>
        <path d="M165.985,80.771C165.985,80.771 135.762,8.573 118,12.127C100.238,15.681 108.465,79.625 108.465,79.625" style="fill:none;fill-rule:nonzero;stroke:rgb(180,180,180);stroke-width:4px;"/>
        <path d="M185.368,262.626L185.079,262.353C185.027,262.305 179.588,257.328 169.978,257.328L42.964,257.328C38.097,257.29 33.387,259.071 29.764,262.321L29.469,262.624L21.44,262.626C19.17,262.623 17.302,260.756 17.3,258.486L17.3,73.911C17.302,71.641 19.17,69.773 21.44,69.771L191.683,69.771C193.954,69.773 195.821,71.641 195.823,73.911L195.823,258.486C195.821,260.756 193.954,262.624 191.683,262.626L185.368,262.626Z" style="fill:rgb(242,251,208);fill-rule:nonzero;"/>
        <path d="M191.683,70.771C193.406,70.771 194.823,72.189 194.823,73.911L194.823,258.486C194.823,260.208 193.406,261.626 191.683,261.626L185.765,261.626C185.765,261.626 180.144,256.329 169.978,256.329L42.964,256.329C37.823,256.271 32.847,258.164 29.045,261.626L21.44,261.626C19.717,261.626 18.3,260.208 18.3,258.486L18.3,73.911C18.3,72.188 19.717,70.771 21.44,70.771L191.683,70.771M191.683,68.771L21.44,68.771C18.621,68.774 16.303,71.092 16.3,73.911L16.3,258.486C16.303,261.304 18.621,263.623 21.44,263.626L29.896,263.626L30.486,263.013C33.921,259.963 38.369,258.293 42.963,258.329L169.978,258.329C179.151,258.329 184.349,263.04 184.4,263.088L184.975,263.619L185.765,263.626L191.683,263.626C194.502,263.623 196.82,261.304 196.823,258.486L196.823,73.911C196.82,71.092 194.502,68.774 191.683,68.771L191.683,68.771Z" style="fill:rgb(180,180,180);fill-rule:nonzero;"/>
        <path d="M41.31,230.618C34.905,230.61 29.637,225.342 29.63,218.938L29.63,91.084C29.632,89.994 30.528,89.098 31.617,89.097L181.507,89.097C182.597,89.098 183.493,89.994 183.494,91.084L183.494,218.938C183.487,225.342 178.219,230.61 171.814,230.618L41.31,230.618Z" style="fill:white;fill-rule:nonzero;"/>
        <path d="M181.507,90.097C182.048,90.098 182.493,90.543 182.494,91.084L182.494,218.938C182.487,224.794 177.67,229.611 171.814,229.618L41.31,229.618C35.454,229.611 30.637,224.794 30.63,218.938L30.63,91.084C30.631,90.543 31.076,90.098 31.617,90.097L181.507,90.097M181.507,88.097L31.617,88.097C29.978,88.097 28.63,89.445 28.63,91.084L28.63,218.938C28.63,225.894 34.354,231.618 41.31,231.618L171.814,231.618C178.77,231.618 184.494,225.894 184.494,218.938L184.494,91.084C184.494,89.445 183.146,88.097 181.507,88.097C181.507,88.097 181.507,88.097 181.506,88.097L181.507,88.097Z" style="fill:rgb(251,251,251);fill-rule:nonzero;"/>
        <path d="M181.507,88.097C181.507,88.097 181.507,88.097 181.507,88.097C183.146,88.097 184.494,89.445 184.494,91.084L184.494,218.938C184.494,225.894 178.77,231.618 171.814,231.618L41.31,231.618C34.354,231.618 28.63,225.894 28.63,218.938L28.63,91.084C28.63,89.445 29.978,88.097 31.617,88.097C31.617,88.097 31.617,88.097 31.617,88.097L181.507,88.097M181.507,86.097L31.617,86.097C28.883,86.1 26.633,88.349 26.63,91.084L26.63,218.938C26.639,226.988 33.26,233.609 41.31,233.618L171.814,233.618C179.864,233.609 186.485,226.988 186.494,218.938L186.494,91.084C186.49,88.349 184.241,86.1 181.506,86.097L181.507,86.097Z" style="fill:rgb(180,180,180);fill-rule:nonzero;"/>
        <circle cx="180.277" cy="238.787" r="1.65" style="fill:rgb(180,180,180);"/>
        <circle cx="32.416" cy="238.787" r="1.65" style="fill:rgb(180,180,180);"/>
        <circle cx="180.349" cy="74.226" r="1.65" style="fill:rgb(180,180,180);"/>
        <circle cx="132.403" cy="74.226" r="1.65" style="fill:rgb(180,180,180);"/>
        <circle cx="81.786" cy="74.226" r="1.65" style="fill:rgb(180,180,180);"/>
        <circle cx="32.488" cy="74.226" r="1.65" style="fill:rgb(180,180,180);"/>
        <rect x="53.381" y="242.705" width="7.011" height="2.475" style="fill:rgb(180,180,180);"/>
        <path d="M106.562,146.818L77.797,157.287L62.492,183.796L67.808,213.942L91.257,233.618L121.867,233.618L145.316,213.942L150.631,183.796L135.326,157.287L106.562,146.818Z" style="fill:rgb(229,229,229);fill-rule:nonzero;"/>
        <path d="M131.767,225.764C131.767,225.457 131.517,225.208 131.211,225.208L81.913,225.208C81.606,225.208 81.357,225.457 81.357,225.764L81.357,251.089C81.357,251.395 81.606,251.645 81.913,251.645L131.211,251.645C131.517,251.645 131.767,251.395 131.767,251.089L131.767,225.764Z" style="fill:white;"/>
        <path d="M129.432,226.208C130.164,226.208 130.766,226.81 130.766,227.543L130.766,249.31C130.766,250.042 130.164,250.645 129.432,250.645L83.692,250.645C82.96,250.645 82.357,250.042 82.357,249.31L82.357,227.543C82.357,226.811 82.96,226.208 83.692,226.208L129.432,226.208M129.432,224.208L83.692,224.208C81.863,224.21 80.359,225.714 80.357,227.543L80.357,249.31C80.359,251.139 81.863,252.643 83.692,252.645L129.432,252.645C131.26,252.643 132.764,251.139 132.766,249.31L132.766,227.543C132.764,225.714 131.26,224.21 129.432,224.208Z" style="fill:rgb(180,180,180);fill-rule:nonzero;"/>
        <path d="M128.766,228.208L128.766,248.644L84.357,248.644L84.357,228.208L128.766,228.208M129.432,226.208L83.692,226.208C82.96,226.208 82.357,226.811 82.357,227.543L82.357,249.31C82.357,250.042 82.96,250.645 83.692,250.645L129.432,250.645C130.164,250.645 130.766,250.042 130.766,249.31L130.766,227.543C130.766,226.81 130.164,226.208 129.432,226.208Z" style="fill:rgb(236,236,236);fill-rule:nonzero;"/>
        <path d="M1,262.626L212.124,262.626" style="fill:none;fill-rule:nonzero;stroke:rgb(180,180,180);stroke-width:2px;"/>
        <path d="M95.699,110.283C94.139,110.282 92.742,109.288 92.23,107.815L87.858,95.839C87.709,95.431 87.633,94.999 87.633,94.565L87.633,89.955L125.495,89.955L125.474,94.705C125.472,95.14 125.394,95.571 125.242,95.979L120.839,107.862C120.312,109.31 118.928,110.281 117.387,110.282L95.699,110.283Z" style="fill:white;fill-rule:nonzero;"/>
        <path d="M124.491,90.955L124.474,94.701C124.472,95.018 124.415,95.333 124.305,95.631L119.901,107.515C119.521,108.573 118.511,109.282 117.387,109.283L95.699,109.283C94.564,109.283 93.547,108.559 93.175,107.487L88.798,95.496C88.688,95.198 88.633,94.882 88.633,94.565L88.633,90.955L124.491,90.955M126.5,88.955L86.633,88.955L86.633,94.565C86.632,95.117 86.729,95.666 86.92,96.185L91.296,108.173C91.954,110.034 93.725,111.285 95.699,111.283L117.387,111.283C119.352,111.28 121.115,110.04 121.783,108.192L126.18,96.326C126.372,95.809 126.471,95.262 126.474,94.71L126.491,90.965L126.5,88.955L126.5,88.955Z" style="fill:rgb(180,180,180);fill-rule:nonzero;"/>
        <path d="M99.383,112.164C98.208,112.164 97.241,111.197 97.241,110.022C97.241,109.98 97.242,109.938 97.245,109.896L98.07,95.993C98.132,94.968 98.992,94.158 100.019,94.157L113.106,94.157C114.133,94.158 114.993,94.968 115.055,95.993L115.879,109.896C115.882,109.938 115.883,109.98 115.883,110.022C115.883,111.197 114.916,112.164 113.741,112.164L99.383,112.164Z" style="fill:white;fill-rule:nonzero;"/>
        <path d="M113.106,95.157C113.607,95.157 114.026,95.552 114.056,96.052L114.881,109.955C114.882,109.977 114.883,110 114.883,110.022C114.883,110.649 114.367,111.164 113.741,111.164L99.383,111.164C98.757,111.164 98.241,110.649 98.241,110.022C98.241,110 98.242,109.977 98.243,109.954L99.068,96.052C99.097,95.552 99.517,95.157 100.018,95.157L113.106,95.157M113.106,93.157L100.018,93.157C98.465,93.158 97.165,94.384 97.071,95.934L96.246,109.836C96.243,109.898 96.241,109.96 96.241,110.022C96.241,111.746 97.659,113.164 99.383,113.164L113.741,113.164C115.464,113.164 116.883,111.746 116.883,110.022C116.883,109.96 116.881,109.899 116.877,109.837L116.053,95.933C115.959,94.383 114.659,93.158 113.106,93.157Z" style="fill:rgb(180,180,180);fill-rule:nonzero;"/>
        <path d="M85.959,94.662C83.162,94.662 80.86,92.36 80.86,89.563C80.86,86.766 83.162,84.464 85.959,84.464L127.165,84.464C129.962,84.464 132.264,86.766 132.264,89.563C132.264,92.36 129.962,94.661 127.165,94.662L85.959,94.662Z" style="fill:white;fill-rule:nonzero;"/>
        <path d="M127.165,85.464C129.414,85.464 131.264,87.314 131.264,89.563C131.264,91.811 129.414,93.661 127.165,93.661L85.959,93.661C83.71,93.661 81.86,91.811 81.86,89.563C81.86,87.314 83.71,85.464 85.959,85.464L127.165,85.464M127.165,83.464L85.959,83.464C82.613,83.464 79.86,86.217 79.86,89.563C79.86,92.908 82.613,95.661 85.959,95.661L127.165,95.661C130.511,95.661 133.264,92.908 133.264,89.563C133.264,86.217 130.511,83.464 127.165,83.464Z" style="fill:rgb(180,180,180);fill-rule:nonzero;"/>
    </g>
</svg>
