<?xml version="1.0" encoding="UTF-8" standalone="no"?>
<!DOCTYPE svg PUBLIC "-//W3C//DTD SVG 1.1//EN" "http://www.w3.org/Graphics/SVG/1.1/DTD/svg11.dtd">
<svg width="100%" height="100%" viewBox="0 0 300 300" version="1.1" xmlns="http://www.w3.org/2000/svg" xmlns:xlink="http://www.w3.org/1999/xlink" xml:space="preserve" xmlns:serif="http://www.serif.com/" style="fill-rule:evenodd;clip-rule:evenodd;stroke-linecap:round;stroke-miterlimit:10;">
    <path d="M1,262.999L247,262.999" style="fill:none;fill-rule:nonzero;stroke:rgb(107,132,6);stroke-width:2px;"/>
    <path d="M44.185,73.004C50.895,56.591 75.715,-1.206 91.205,2.139C106.985,5.536 102.565,59.538 101.215,73.004" style="fill:none;fill-rule:nonzero;stroke:rgb(107,132,6);stroke-width:4px;"/>
    <path d="M103.525,73.004C102.135,52.366 101.555,15.865 114.435,13.088C127.385,10.291 146.865,50.238 156.815,73.004" style="fill:none;fill-rule:nonzero;stroke:rgb(107,132,6);stroke-width:4px;"/>
    <path d="M150,256C160.395,256 169.362,259.116 173.525,262.171C174.224,262.699 175.075,262.989 175.951,263L189,263C191.194,263 193,261.194 193,259L193,77C193,74.806 191.194,73 189,73L13,73C10.806,73 9,74.806 9,77L9,259C9,261.194 10.806,263 13,263L26.049,263C26.925,262.989 27.776,262.699 28.476,262.171C32.638,259.116 41.605,256 52,256L150,256Z" style="fill:rgb(252,254,243);fill-rule:nonzero;stroke:rgb(107,132,6);stroke-width:2px;stroke-linecap:butt;"/>
    <circle cx="23" cy="238" r="2" style="fill:rgb(107,132,6);stroke:rgb(107,132,6);stroke-width:1px;stroke-linecap:butt;stroke-linejoin:round;stroke-miterlimit:2;"/>
    <circle cx="179" cy="238" r="2" style="fill:rgb(107,132,6);stroke:rgb(107,132,6);stroke-width:1px;stroke-linecap:butt;stroke-linejoin:round;stroke-miterlimit:2;"/>
    <circle cx="23" cy="80" r="2" style="fill:rgb(107,132,6);stroke:rgb(107,132,6);stroke-width:1px;stroke-linecap:butt;stroke-linejoin:round;stroke-miterlimit:2;"/>
    <circle cx="75" cy="80" r="2" style="fill:rgb(107,132,6);stroke:rgb(107,132,6);stroke-width:1px;stroke-linecap:butt;stroke-linejoin:round;stroke-miterlimit:2;"/>
    <circle cx="127" cy="80" r="2" style="fill:rgb(107,132,6);stroke:rgb(107,132,6);stroke-width:1px;stroke-linecap:butt;stroke-linejoin:round;stroke-miterlimit:2;"/>
    <circle cx="179" cy="80" r="2" style="fill:rgb(107,132,6);stroke:rgb(107,132,6);stroke-width:1px;stroke-linecap:butt;stroke-linejoin:round;stroke-miterlimit:2;"/>
    <path d="M34,226.5C28.242,226.494 23.506,221.758 23.5,216L23.5,95C23.501,93.629 24.629,92.501 26,92.5L176,92.5C177.371,92.501 178.499,93.629 178.5,95L178.5,216C178.494,221.758 173.758,226.494 168,226.5L34,226.5Z" style="fill:white;fill-rule:nonzero;"/>
    <path d="M176,94C176.548,94.001 176.999,94.452 177,95L177,216C176.995,220.935 172.935,224.995 168,225L34,225C29.065,224.995 25.005,220.935 25,216L25,95C25.001,94.452 25.452,94.001 26,94L176,94M176,91L26,91C23.806,91 22,92.806 22,95L22,216C22,222.583 27.417,228 34,228L168,228C174.583,228 180,222.583 180,216L180,95C180,92.806 178.194,91 176,91Z" style="fill:rgb(243,248,254);fill-rule:nonzero;"/>
    <path d="M168,228L34,228C27.417,228 22,222.583 22,216L22,95C22,92.806 23.806,91 26,91L176,91C178.194,91 180,92.806 180,95L180,216C180,222.583 174.583,228 168,228Z" style="fill:none;fill-rule:nonzero;stroke:rgb(107,132,6);stroke-width:2px;stroke-linecap:butt;"/>
    <path d="M50,243L58,243" style="fill:none;fill-rule:nonzero;stroke:rgb(107,132,6);stroke-width:2px;stroke-linecap:butt;"/>
    <path d="M100.5,145.001L74.392,154.65L60.5,179.082L65.325,206.866L86.609,225.001L114.392,225.001L135.676,206.866L140.5,179.082L126.609,154.65L100.5,145.001Z" style="fill:rgb(247,253,221);fill-rule:nonzero;"/>
    <path d="M123.5,222C123.5,221.724 123.276,221.5 123,221.5L79,221.5C78.724,221.5 78.5,221.724 78.5,222L78.5,246C78.5,246.276 78.724,246.5 79,246.5L123,246.5C123.276,246.5 123.5,246.276 123.5,246L123.5,222Z" style="fill:white;"/>
    <path d="M122,223L122,245L80,245L80,223L122,223M123,220L79,220C77.903,220 77,220.903 77,222L77,246C77,247.097 77.903,248 79,248L123,248C124.097,248 125,247.097 125,246L125,222C125,220.903 124.097,220 123,220Z" style="fill:rgb(221,233,253);fill-rule:nonzero;"/>
    <path d="M125,222C125,220.896 124.104,220 123,220L79,220C77.896,220 77,220.896 77,222L77,246C77,247.104 77.896,248 79,248L123,248C124.104,248 125,247.104 125,246L125,222Z" style="fill:none;stroke:rgb(107,132,6);stroke-width:2px;"/>
    <path d="M88.211,109C86.95,109.009 85.822,108.193 85.435,106.994L82,94.712L82,90L120,90L120,94.712L116.571,106.973C116.189,108.182 115.057,109.007 113.789,109L88.211,109Z" style="fill:white;fill-rule:nonzero;"/>
    <path d="M119,91L119,94.575L115.608,106.704C115.353,107.486 114.612,108.014 113.789,108L88.211,108C87.388,108.014 86.647,107.486 86.392,106.704L83,94.575L83,91L119,91M121,89L81,89L81,94.849L81.074,95.114L84.466,107.242C84.971,108.88 86.497,110.003 88.211,110L113.789,110C115.489,110.007 117.007,108.902 117.523,107.283L120.926,95.114L121,94.849L121,89Z" style="fill:rgb(107,132,6);fill-rule:nonzero;stroke:rgb(107,132,6);stroke-width:1px;stroke-linecap:butt;stroke-linejoin:round;stroke-miterlimit:2;"/>
    <path d="M92.221,112.001C91.378,112.006 90.573,111.65 90.01,111.023C89.501,110.454 89.26,109.693 89.348,108.935L91.118,95.001L110.88,95.001L112.649,108.929C112.739,109.689 112.497,110.452 111.987,111.023C111.425,111.65 110.619,112.006 109.777,112.001L92.221,112.001Z" style="fill:white;fill-rule:nonzero;"/>
    <path d="M109.999,96.001L111.658,109.055C111.661,109.101 111.663,109.148 111.663,109.194C111.663,110.186 110.847,111.002 109.855,111.002C109.829,111.002 109.803,111.002 109.778,111.001L92.221,111.001C92.195,111.002 92.169,111.002 92.143,111.002C91.151,111.002 90.335,110.186 90.335,109.194C90.335,109.148 90.337,109.101 90.341,109.055L91.999,96.001L109.999,96.001M111.761,94.001L90.237,94.001L90.015,95.749L88.356,108.803C88.231,109.849 88.562,110.901 89.263,111.688C90.015,112.527 91.093,113.006 92.221,113.001L109.777,113.001C110.905,113.006 111.982,112.527 112.735,111.688C113.434,110.905 113.765,109.859 113.643,108.816L111.983,95.749L111.761,94.001L111.761,94.001Z" style="fill:rgb(107,132,6);fill-rule:nonzero;stroke:rgb(107,132,6);stroke-width:1px;stroke-linecap:butt;stroke-linejoin:round;stroke-miterlimit:2;"/>
    <path d="M122.5,86.001L79.5,86.001C76.757,86.001 74.5,88.258 74.5,91.001C74.5,93.744 76.757,96.001 79.5,96.001L122.5,96.001C125.243,96.001 127.5,93.744 127.5,91.001C127.5,88.258 125.243,86.001 122.5,86.001Z" style="fill:white;fill-rule:nonzero;stroke:rgb(107,132,6);stroke-width:2px;"/>
    <path d="M101,96L101,86" style="fill:none;fill-rule:nonzero;stroke:rgb(107,132,6);stroke-width:2px;stroke-linecap:butt;"/>
    <path d="M107.102,142L257.898,142C261.246,142 264,144.754 264,148.102L264,252L101,252L101,148.102C101,144.754 103.754,142 107.102,142Z" style="fill:rgb(243,248,254);fill-rule:nonzero;stroke:rgb(107,132,6);stroke-width:2px;stroke-linecap:butt;"/>
    <path d="M107,253C106.451,253 106,252.549 106,252L106,148.675C106.001,147.756 106.756,147.001 107.675,147L256.65,147C257.939,147.001 258.999,148.061 259,149.35L259,252C259,252.549 258.549,253 258,253L107,253Z" style="fill:white;fill-rule:nonzero;"/>
    <path d="M256.65,148C257.391,148 258,148.609 258,149.35L258,252L107,252L107,148.675C107,148.305 107.305,148 107.675,148L256.65,148M256.65,146L107.675,146C106.208,146.002 105.002,147.208 105,148.675L105,252C105,253.097 105.903,254 107,254L258,254C259.097,254 260,253.097 260,252L260,149.35C259.998,147.513 258.487,146.002 256.65,146Z" style="fill:rgb(107,132,6);fill-rule:nonzero;"/>
    <path d="M256,150L256,250L109,250L109,150L256,150M256.65,148L107.675,148C107.305,148 107,148.305 107,148.675L107,252L258,252L258,149.35C258,148.609 257.391,148 256.65,148Z" style="fill:rgb(243,248,254);fill-rule:nonzero;"/>
    <path d="M83,263L283,263" style="fill:none;fill-rule:nonzero;stroke:rgb(107,132,6);stroke-width:2px;stroke-linejoin:round;stroke-miterlimit:4;"/>
    <path d="M96.127,263C90.644,262.994 86.133,258.483 86.127,253C86.127,252.451 86.578,252 87.127,252L278.673,252C279.221,252 279.673,252.451 279.673,253C279.667,258.483 275.156,262.994 269.673,263L96.127,263Z" style="fill:rgb(243,248,254);fill-rule:nonzero;"/>
    <path d="M278.673,253C278.673,257.937 274.61,262 269.673,262L96.127,262C91.189,262 87.127,257.937 87.127,253L278.673,253M278.673,251L87.127,251C86.03,251 85.127,251.903 85.127,253C85.134,259.032 90.095,263.993 96.127,264L269.673,264C275.705,263.993 280.666,259.032 280.673,253C280.673,251.903 279.77,251 278.673,251Z" style="fill:rgb(107,132,6);fill-rule:nonzero;"/>
    <path d="M198,252L168,252C168,253.646 169.354,255 171,255L195,255C196.646,255 198,253.646 198,252Z" style="fill:rgb(107,132,6);fill-rule:nonzero;"/>
    <path d="M144.5,186.5C144.5,185.948 144.052,185.5 143.5,185.5L131.5,185.5C130.948,185.5 130.5,185.948 130.5,186.5L130.5,208.5C130.5,209.052 130.948,209.5 131.5,209.5L143.5,209.5C144.052,209.5 144.5,209.052 144.5,208.5L144.5,186.5Z" style="fill:rgb(247,253,221);"/>
    <path d="M162.5,186.5C162.5,185.948 162.052,185.5 161.5,185.5L149.5,185.5C148.948,185.5 148.5,185.948 148.5,186.5L148.5,208.5C148.5,209.052 148.948,209.5 149.5,209.5L161.5,209.5C162.052,209.5 162.5,209.052 162.5,208.5L162.5,186.5Z" style="fill:rgb(247,253,221);"/>
    <path d="M180.5,186.5C180.5,185.948 180.052,185.5 179.5,185.5L167.5,185.5C166.948,185.5 166.5,185.948 166.5,186.5L166.5,208.5C166.5,209.052 166.948,209.5 167.5,209.5L179.5,209.5C180.052,209.5 180.5,209.052 180.5,208.5L180.5,186.5Z" style="fill:rgb(247,253,221);"/>
    <path d="M198.5,186.5C198.5,185.948 198.052,185.5 197.5,185.5L185.5,185.5C184.948,185.5 184.5,185.948 184.5,186.5L184.5,208.5C184.5,209.052 184.948,209.5 185.5,209.5L197.5,209.5C198.052,209.5 198.5,209.052 198.5,208.5L198.5,186.5Z" style="fill:rgb(247,253,221);"/>
    <path d="M216.5,186.5C216.5,185.948 216.052,185.5 215.5,185.5L203.5,185.5C202.948,185.5 202.5,185.948 202.5,186.5L202.5,208.5C202.5,209.052 202.948,209.5 203.5,209.5L215.5,209.5C216.052,209.5 216.5,209.052 216.5,208.5L216.5,186.5Z" style="fill:rgb(247,253,221);"/>
    <path d="M234.5,186.5C234.5,185.948 234.052,185.5 233.5,185.5L221.5,185.5C220.948,185.5 220.5,185.948 220.5,186.5L220.5,208.5C220.5,209.052 220.948,209.5 221.5,209.5L233.5,209.5C234.052,209.5 234.5,209.052 234.5,208.5L234.5,186.5Z" style="fill:rgb(247,253,221);"/>
    <path d="M141.291,197.492C141.313,198.561 141.184,199.627 140.908,200.66C140.71,201.439 140.284,202.141 139.684,202.676C139.058,203.167 138.277,203.417 137.482,203.38C136.313,203.445 135.204,202.839 134.627,201.82C133.946,200.483 133.628,198.99 133.707,197.492C133.686,196.424 133.813,195.357 134.084,194.324C134.274,193.548 134.695,192.848 135.291,192.316C135.914,191.829 136.692,191.582 137.482,191.62C138.649,191.559 139.757,192.156 140.348,193.164C141.047,194.495 141.373,195.991 141.291,197.492ZM135.115,197.492C135.053,198.689 135.235,199.887 135.65,201.012C135.982,201.723 136.699,202.18 137.484,202.18C138.266,202.18 138.981,201.727 139.314,201.02C140.051,198.734 140.051,196.274 139.314,193.988C138.983,193.277 138.267,192.82 137.482,192.82C136.698,192.82 135.982,193.277 135.65,193.988C135.236,195.107 135.054,196.3 135.115,197.492Z" style="fill:rgb(107,132,6);fill-rule:nonzero;"/>
    <path d="M159.292,197.492C159.314,198.561 159.185,199.627 158.909,200.66C158.711,201.439 158.285,202.141 157.685,202.676C157.059,203.167 156.278,203.417 155.483,203.38C154.314,203.445 153.205,202.839 152.628,201.82C151.947,200.483 151.629,198.99 151.708,197.492C151.687,196.424 151.813,195.357 152.085,194.324C152.275,193.548 152.696,192.848 153.292,192.316C153.915,191.829 154.693,191.582 155.483,191.62C156.65,191.559 157.758,192.156 158.348,193.164C159.048,194.495 159.374,195.991 159.292,197.492ZM153.116,197.492C153.054,198.689 153.236,199.887 153.651,201.012C153.983,201.723 154.7,202.18 155.485,202.18C156.267,202.18 156.982,201.727 157.315,201.02C158.052,198.734 158.052,196.274 157.315,193.988C156.984,193.277 156.268,192.82 155.483,192.82C154.699,192.82 153.982,193.277 153.651,193.988C153.237,195.107 153.055,196.3 153.116,197.492Z" style="fill:rgb(107,132,6);fill-rule:nonzero;"/>
    <path d="M177.293,197.492C177.315,198.561 177.186,199.627 176.91,200.66C176.712,201.439 176.286,202.141 175.686,202.676C175.06,203.167 174.279,203.417 173.484,203.38C172.315,203.445 171.206,202.839 170.629,201.82C169.948,200.483 169.63,198.99 169.709,197.492C169.688,196.424 169.814,195.357 170.086,194.324C170.275,193.548 170.697,192.848 171.293,192.316C171.916,191.829 172.694,191.582 173.484,191.62C174.651,191.559 175.759,192.156 176.35,193.164C177.049,194.495 177.375,195.991 177.293,197.492ZM171.117,197.492C171.055,198.689 171.237,199.887 171.652,201.012C171.984,201.723 172.701,202.18 173.486,202.18C174.268,202.18 174.983,201.727 175.316,201.02C176.053,198.734 176.053,196.274 175.316,193.988C174.985,193.277 174.269,192.82 173.484,192.82C172.7,192.82 171.983,193.277 171.652,193.988C171.238,195.107 171.056,196.3 171.117,197.492Z" style="fill:rgb(107,132,6);fill-rule:nonzero;"/>
    <path d="M195.294,197.492C195.316,198.561 195.187,199.627 194.911,200.66C194.713,201.439 194.287,202.141 193.687,202.676C193.061,203.167 192.28,203.417 191.485,203.38C190.316,203.445 189.207,202.839 188.63,201.82C187.949,200.483 187.631,198.99 187.71,197.492C187.689,196.424 187.815,195.357 188.087,194.324C188.277,193.548 188.698,192.848 189.294,192.316C189.917,191.829 190.695,191.582 191.485,191.62C192.652,191.559 193.76,192.156 194.35,193.164C195.05,194.495 195.376,195.991 195.294,197.492ZM189.118,197.492C189.056,198.689 189.238,199.887 189.653,201.012C189.985,201.723 190.702,202.18 191.487,202.18C192.269,202.18 192.984,201.727 193.317,201.02C194.054,198.734 194.054,196.274 193.317,193.988C192.986,193.277 192.27,192.82 191.485,192.82C190.701,192.82 189.984,193.277 189.653,193.988C189.239,195.107 189.057,196.3 189.118,197.492Z" style="fill:rgb(107,132,6);fill-rule:nonzero;"/>
    <path d="M213.295,197.492C213.317,198.561 213.188,199.627 212.912,200.66C212.714,201.439 212.288,202.141 211.688,202.676C211.062,203.167 210.281,203.417 209.486,203.38C208.317,203.445 207.208,202.839 206.631,201.82C205.95,200.483 205.632,198.99 205.711,197.492C205.69,196.424 205.816,195.357 206.088,194.324C206.278,193.548 206.699,192.848 207.295,192.316C207.918,191.829 208.696,191.582 209.486,191.62C210.653,191.559 211.761,192.156 212.352,193.164C213.051,194.495 213.377,195.991 213.295,197.492ZM207.119,197.492C207.057,198.689 207.239,199.887 207.654,201.012C207.986,201.723 208.703,202.18 209.488,202.18C210.27,202.18 210.985,201.727 211.318,201.02C212.055,198.734 212.055,196.274 211.318,193.988C210.987,193.277 210.271,192.82 209.486,192.82C208.702,192.82 207.985,193.277 207.654,193.988C207.24,195.107 207.058,196.3 207.119,197.492Z" style="fill:rgb(107,132,6);fill-rule:nonzero;"/>
    <path d="M231.296,197.492C231.317,198.561 231.189,199.627 230.913,200.66C230.715,201.439 230.289,202.141 229.688,202.676C229.063,203.167 228.282,203.417 227.487,203.38C226.318,203.445 225.209,202.839 224.632,201.82C223.951,200.483 223.633,198.99 223.712,197.492C223.69,196.424 223.817,195.357 224.089,194.324C224.278,193.548 224.699,192.848 225.296,192.316C225.919,191.829 226.697,191.582 227.487,191.62C228.654,191.559 229.762,192.156 230.352,193.164C231.052,194.495 231.378,195.991 231.296,197.492ZM225.12,197.492C225.058,198.689 225.24,199.887 225.655,201.012C225.987,201.723 226.704,202.18 227.489,202.18C228.271,202.18 228.986,201.727 229.319,201.02C230.056,198.734 230.056,196.274 229.319,193.988C228.988,193.277 228.272,192.82 227.487,192.82C226.703,192.82 225.986,193.277 225.655,193.988C225.241,195.107 225.058,196.3 225.12,197.492L225.12,197.492Z" style="fill:rgb(107,132,6);fill-rule:nonzero;"/>
</svg>
