<?xml version="1.0" encoding="UTF-8" standalone="no"?>
<!DOCTYPE svg PUBLIC "-//W3C//DTD SVG 1.1//EN" "http://www.w3.org/Graphics/SVG/1.1/DTD/svg11.dtd">
<svg width="100%" height="100%" viewBox="0 0 108 81" version="1.1" xmlns="http://www.w3.org/2000/svg" xmlns:xlink="http://www.w3.org/1999/xlink" xml:space="preserve" xmlns:serif="http://www.serif.com/" style="fill-rule:evenodd;clip-rule:evenodd;stroke-linejoin:round;stroke-miterlimit:2;">
    <g id="_0419-data-collection-update" serif:id="0419-data-collection-update">
        <g id="_4.-collect-data-updated" serif:id="4.-collect-data-updated">
            <g id="Print-settings">
                <rect id="Rectangle" x="8" y="3" width="100" height="78" style="fill:rgb(204,204,204);"/>
                <rect id="Rectangle1" serif:id="Rectangle" x="0" y="0" width="103" height="78" style="fill:rgb(229,229,229);"/>
                <rect id="Rectangle2" serif:id="Rectangle" x="29" y="40" width="1" height="13" style="fill:rgb(192,231,38);"/>
                <rect id="Rectangle3" serif:id="Rectangle" x="18" y="53" width="12" height="1" style="fill:rgb(192,231,38);"/>
                <rect id="Rectangle-Copy-5" x="18" y="55" width="29" height="1" style="fill:rgb(153,153,153);"/>
                <rect id="Rectangle-Copy-27" x="18" y="57" width="29" height="1" style="fill:rgb(153,153,153);"/>
                <path id="Rectangle-Copy-28" d="M66,24C66,23.448 65.552,23 65,23C64.448,23 64,23.448 64,24L64,54C64,54.552 64.448,55 65,55C65.552,55 66,54.552 66,54L66,24Z" style="fill:rgb(153,153,153);"/>
                <path id="Rectangle-Copy-29" d="M76,24C76,23.448 75.552,23 75,23C74.448,23 74,23.448 74,24L74,54C74,54.552 74.448,55 75,55C75.552,55 76,54.552 76,54L76,24Z" style="fill:rgb(153,153,153);"/>
                <path id="Rectangle-Copy-30" d="M86,24C86,23.448 85.552,23 85,23C84.448,23 84,23.448 84,24L84,54C84,54.552 84.448,55 85,55C85.552,55 86,54.552 86,54L86,24Z" style="fill:rgb(153,153,153);"/>
                <rect id="Rectangle4" serif:id="Rectangle" x="25" y="25" width="14" height="12" style="fill:rgb(153,153,153);"/>
                <path id="Path-4" d="M19.618,25L24,25L24,37L18.724,26.447C18.477,25.953 18.677,25.353 19.171,25.106C19.31,25.036 19.463,25 19.618,25Z" style="fill:rgb(153,153,153);"/>
                <g id="Path-41" serif:id="Path-4" transform="matrix(-1,0,0,1,86,0)">
                    <path d="M41.618,25L46,25L46,37L40.724,26.447C40.477,25.953 40.677,25.353 41.171,25.106C41.31,25.036 41.463,25 41.618,25Z" style="fill:rgb(153,153,153);"/>
                </g>
                <path id="Path-5" d="M28,37L28.7,37.933C29.031,38.375 29.658,38.465 30.1,38.133C30.176,38.076 30.243,38.009 30.3,37.933L31,37L28,37Z" style="fill:rgb(153,153,153);"/>
                <path id="Path-6" d="M25,24L39,24L37,20L27,20L25,24Z" style="fill:rgb(153,153,153);"/>
                <circle id="Oval-Copy" cx="65" cy="27" r="3" style="fill:rgb(139,170,16);"/>
                <circle id="Oval-Copy-2" cx="75" cy="43" r="3" style="fill:rgb(220,255,78);"/>
                <circle id="Oval-Copy-16" cx="85" cy="50" r="3" style="fill:rgb(192,231,38);"/>
            </g>
        </g>
    </g>
</svg>
