<?xml version="1.0" encoding="UTF-8" standalone="no"?>
<!DOCTYPE svg PUBLIC "-//W3C//DTD SVG 1.1//EN" "http://www.w3.org/Graphics/SVG/1.1/DTD/svg11.dtd">
<svg width="100%" height="100%" viewBox="0 0 326 198" version="1.1" xmlns="http://www.w3.org/2000/svg" xmlns:xlink="http://www.w3.org/1999/xlink" xml:space="preserve" xmlns:serif="http://www.serif.com/" style="fill-rule:evenodd;clip-rule:evenodd;stroke-linejoin:round;stroke-miterlimit:2;">
    <path d="M47.68,9.26L277.81,9.26C281.156,9.26 283.91,12.014 283.91,15.36L283.91,172.48L41.57,172.48L41.57,15.36C41.57,12.014 44.324,9.26 47.67,9.26C47.673,9.26 47.677,9.26 47.68,9.26Z" style="fill-rule:nonzero;"/>
    <path d="M50.88,173.48C50.331,173.48 49.88,173.029 49.88,172.48L49.88,19.57C49.88,18.473 50.783,17.57 51.88,17.57L272.61,17.57C274.256,17.57 275.61,18.924 275.61,20.57L275.61,172.48C275.61,173.029 275.159,173.48 274.61,173.48L50.88,173.48Z" style="fill-rule:nonzero;"/>
    <path d="M272.61,18.57C273.707,18.57 274.61,19.473 274.61,20.57L274.61,172.48L50.88,172.48L50.88,19.57C50.88,19.021 51.331,18.57 51.88,18.57L272.61,18.57M272.61,16.57L51.88,16.57C50.234,16.57 48.88,17.924 48.88,19.57L48.88,172.48C48.88,173.577 49.783,174.48 50.88,174.48L274.61,174.48C275.707,174.48 276.61,173.577 276.61,172.48L276.61,20.57C276.61,18.376 274.804,16.57 272.61,16.57Z" style="fill:rgb(107,132,6);fill-rule:nonzero;"/>
    <path d="M272.61,20.57L272.61,170.48L52.88,170.48L52.88,20.57L272.61,20.57M272.61,18.57L51.88,18.57C51.331,18.57 50.88,19.021 50.88,19.57L50.88,172.48L274.61,172.48L274.61,20.57C274.61,19.473 273.707,18.57 272.61,18.57Z" style="fill-rule:nonzero;"/>
    <path d="M14.64,187.91L310.85,187.91" style="fill:none;fill-rule:nonzero;"/>
    <path d="M35.34,187.91C26.85,187.905 19.865,180.92 19.86,172.43C19.86,171.881 20.311,171.43 20.86,171.43L304.63,171.43C305.179,171.43 305.63,171.881 305.63,172.43C305.619,180.922 298.632,187.905 290.14,187.91L35.34,187.91Z" style="fill-rule:nonzero;"/>
    <path d="M304.63,172.43L304.63,172.43C304.63,180.373 298.093,186.91 290.15,186.91C290.147,186.91 290.143,186.91 290.14,186.91L35.34,186.91C27.397,186.91 20.86,180.373 20.86,172.43L304.63,172.43M304.63,170.43L20.86,170.43C19.763,170.43 18.86,171.333 18.86,172.43C18.865,181.469 26.301,188.905 35.34,188.91L290.14,188.91C299.18,188.905 306.619,181.47 306.63,172.43C306.63,171.333 305.727,170.43 304.63,170.43Z" style="fill:rgb(107,132,6);fill-rule:nonzero;"/>
    <path d="M185.24,172.43L140.24,172.43L140.24,173.03C140.24,175.444 142.226,177.43 144.64,177.43L180.85,177.43C183.26,177.425 185.24,175.44 185.24,173.03L185.24,172.43Z" style="fill:rgb(107,132,6);fill-rule:nonzero;"/>
    <path d="M180.22,140.51L117.36,140.51L117.36,77.7L144.3,50.78L207.16,50.78L207.16,113.59L180.22,140.51Z" style="fill-rule:nonzero;"/>
    <path d="M175.73,73.21L162.26,73.21C162.102,73.207 161.944,73.205 161.786,73.205C149.476,73.205 139.346,83.335 139.346,95.645C139.346,107.955 149.476,118.085 161.786,118.085C161.944,118.085 162.102,118.083 162.26,118.08L175.73,118.08" style="fill-rule:nonzero;"/>
    <circle cx="207.16" cy="50.75" r="31"/>
    <path d="M206.73,28.14C194.462,28.162 184.38,38.262 184.38,50.53C184.38,62.813 194.487,72.92 206.77,72.92C219.053,72.92 229.16,62.813 229.16,50.53C229.155,38.245 219.045,28.14 206.76,28.14C206.75,28.14 206.74,28.14 206.73,28.14ZM192.73,65.08C196.134,60.867 201.269,58.414 206.685,58.414C212.101,58.414 217.236,60.867 220.64,65.08C212.901,72.511 200.509,72.511 192.77,65.08L192.73,65.08ZM197.16,46.61C197.16,46.603 197.16,46.597 197.16,46.59C197.16,41.362 201.462,37.06 206.69,37.06C211.918,37.06 216.22,41.362 216.22,46.59C216.22,51.818 211.918,56.12 206.69,56.12C201.485,56.098 197.211,51.815 197.2,46.61L197.16,46.61ZM222.16,63.41C219.59,60.315 216.152,58.058 212.29,56.93C216.095,54.874 218.475,50.883 218.475,46.558C218.475,40.09 213.153,34.768 206.685,34.768C200.217,34.768 194.895,40.09 194.895,46.558C194.895,50.883 197.275,54.874 201.08,56.93C197.217,58.055 193.778,60.312 191.21,63.41C188.196,59.792 186.545,55.229 186.545,50.52C186.545,39.472 195.637,30.38 206.685,30.38C217.733,30.38 226.825,39.472 226.825,50.52C226.825,55.229 225.174,59.792 222.16,63.41Z" style="fill:rgb(105,121,41);"/>
</svg>
